<svg width="59" height="68" viewBox="0 0 59 68" fill="none" xmlns="http://www.w3.org/2000/svg">
<path d="M5.791 1.97508C10.6976 -1.22488 16.4687 0.122658 20.791 1.97508C24.0141 3.35642 27.4349 7.12612 28.9662 8.9541C29.3906 9.46072 30.1914 9.46072 30.6158 8.95411C32.1471 7.12612 35.5679 3.35642 38.791 1.97508C43.1133 0.122658 48.8461 -1.16541 53.791 1.97508C58.7359 5.11556 59.2913 13.4751 58.291 20.9751C57.3197 28.2576 54.9345 40.7258 31.9095 64.7882C30.9156 65.8269 29.1791 65.4899 28.5798 64.1831C19.2768 43.8996 2.79107 31.9795 0.791004 20.9751C-1.29913 9.47506 0.884395 5.17504 5.791 1.97508Z" fill="#457028"/>
<path d="M35.789 34.4751C35.789 22.6538 31.5881 12.3985 30.5298 10.0025C30.3848 9.67422 30.4141 9.29617 30.6284 9.00843C31.6732 7.60628 34.9932 3.43349 38.5654 1.90253C42.8877 0.0501068 48.6205 -1.23796 53.5654 1.90253C58.5103 5.04301 59.0657 13.4025 58.0654 20.9025C57.1041 28.1107 54.0412 41.39 31.6105 65.0504C30.892 65.8082 29.6975 65.1106 30.0153 64.1159C32.1837 57.3285 35.789 45.4264 35.789 34.4751Z" fill="#58833B"/>
</svg>
