<svg width="136" height="138" viewBox="0 0 136 138" fill="none" xmlns="http://www.w3.org/2000/svg">
<path d="M0.0167215 42.936C-0.647572 19.0736 18.5615 -2.11609 43.2325 0.169356C46.6298 0.484205 49.2676 1.0029 50.6739 1.79533C58.7654 6.35563 67.8588 12.0495 67.9239 12.0903C68.0111 12.0357 77.0923 6.3501 85.1739 1.79533C86.441 1.08156 88.707 0.589488 91.6271 0.268966C108.679 -1.60195 123.1 8.02251 130.259 22.0356L121.924 19.5356C111.981 16.0428 106.864 15.7534 99.5909 19.2113C99.1478 19.4222 98.7466 19.713 98.3995 20.06L97.7921 20.6684C96.0597 22.4011 95.6206 25.1082 97.1984 26.9828C97.9969 27.9311 99.6562 28.9728 100.894 28.9008C107.443 28.517 116.296 28.5837 119.924 29.0356C123.362 29.464 130.834 32.8375 132.891 33.7885C133.246 33.9531 133.56 34.1854 133.825 34.474C134.034 34.7013 134.27 34.8896 134.523 35.0385C135.412 40.4946 135.297 46.2258 133.99 51.9467C133.352 54.7427 132.675 57.5224 131.965 60.2465C118.088 48.6316 105.957 41.9174 93.4728 40.1908C86.9797 39.2929 84.5408 39.7888 82.3712 41.9272C80.9971 43.2817 80.3005 45.225 80.5011 47.144C80.7193 49.2304 81.395 50.8403 82.5265 52.101C83.6323 53.3327 85.3455 53.7341 86.9982 53.8285C93.3304 54.1904 90.8309 54.1908 93.9728 54.1908C111.527 54.866 122.743 59.5687 129.841 67.8354C127.387 75.9747 124.581 83.1773 121.424 88.1821C120.124 90.2435 118.6 92.3617 116.908 94.5102C116.861 94.267 116.812 94.0199 116.757 93.7699C116.598 93.0465 116.337 92.3464 115.985 91.6947C113.078 86.3121 109.665 83.2431 103.096 77.2133C98.3068 73.5257 95.6 72.0133 91.4904 70.9867C90.8711 70.8321 90.2322 70.767 89.5939 70.767C85.0151 70.7673 81.017 74.3701 81.9581 78.851C82.2281 80.1358 82.6248 81.3697 83.2032 82.3705C85.7948 86.8534 94.0148 90.1059 94.0148 90.1059C101.691 92.6426 104.919 95.15 109.373 100.592C109.512 100.762 109.632 100.945 109.725 101.143C109.896 101.51 110.052 101.899 110.197 102.304C104.302 108.657 97.5064 114.96 91.1339 120.495L91.7843 118.222C92.1997 116.77 92.2906 115.243 91.9513 113.772C91.4205 111.471 90.4631 108.04 89.2286 106.661C88.5046 105.852 87.4294 105.101 86.3673 104.48C84.1955 103.209 81.3502 103.063 79.5548 104.826C79.0133 105.357 78.5894 105.976 78.4728 106.661C78.0746 108.999 79.835 111.629 81.6593 114.067C82.4236 115.088 83.5965 116.144 84.7013 117.025C86.5244 118.479 88.0046 120.365 88.6759 122.598C88.6767 122.601 88.678 122.603 88.6788 122.606C82.0595 128.252 76.1085 132.929 72.3956 135.772C70.0256 137.586 66.7947 137.624 64.3859 135.862C60.4445 132.977 54.0133 128.134 46.8907 122.232C46.9037 122.166 46.9163 122.099 46.9298 122.034C48.3528 112.547 56.0754 106.21 58.9991 99.6078C59.3112 98.903 59.5083 98.1517 59.589 97.3852C59.7928 95.4465 59.5758 93.9235 58.6632 92.225C58.2313 91.4216 57.4768 90.8521 56.63 90.5131C55.8454 90.1994 54.988 90.1068 54.1544 90.2455L53.6105 90.3363C52.8304 90.4664 52.0726 90.7321 51.4005 91.1488C44.0349 95.7179 41.1365 101.219 38.9445 113.859C38.8626 114.331 38.8106 114.807 38.7863 115.283C30.8822 108.26 22.9473 100.404 17.1818 92.8119C17.2726 92.3614 17.3159 91.8901 17.3029 91.4037C17.2128 88.0673 17.684 85.0836 21.9249 80.7641C28.3786 74.0608 28.9288 76.5342 40.9279 72.0346C42.9563 70.9836 44.6092 70.1211 45.7697 69.1479C48.5908 66.781 48.8527 62.5949 45.3741 61.3871C43.8649 60.8635 40.1124 60.2893 38.5948 60.7885C27.1147 64.5687 18.1909 68.6623 9.50403 79.5766C6.81613 73.2269 4.50692 65.5957 2.54504 57.6303C2.99758 54.6582 5.10956 49.0743 18.3448 44.8412C19.181 44.5739 20.0603 44.4401 20.9376 44.4086C26.9148 44.1941 30.8689 43.6853 36.4777 44.5365C38.1727 44.7938 39.9362 44.7939 41.5187 44.1342C43.1737 43.4441 44.4577 42.5643 45.9083 40.7924C46.2907 40.3253 46.6445 39.8149 46.7931 39.2299C47.0676 38.148 46.6854 37.2283 45.506 35.9828C44.7906 35.2276 43.8906 34.666 42.9259 34.2768C37.4304 32.06 32.5619 31.5533 26.6583 32.7729C20.9307 33.9562 5.54623 38.6648 0.0167215 42.936Z" fill="#3E7028"/>
</svg>
